<?xml version="1.0" encoding="UTF-8"?>
<svg id="Layer_2" data-name="Layer 2" xmlns="http://www.w3.org/2000/svg" viewBox="0 0 249.9 101.54">
  <g id="Layer_1-2" data-name="Layer 1">
    <g>
      <path d="m0,43.93h7.62v13.67H0v-13.67Z"/>
      <path d="m249.9,57.6h-7.62v-13.67h7.62v13.67Z"/>
      <path d="m191.84,50.77c0-15.29,0-30.58,0-45.87,0-3.97.91-4.89,4.84-4.9,3.9,0,7.81,0,11.71,0,3.78,0,4.76.96,4.76,4.76,0,20.17,0,40.34,0,60.5,0,10.49,0,20.98,0,31.47,0,3.81-.97,4.77-4.74,4.78-4.07,0-8.13.01-12.2,0-3.29-.01-4.36-1.09-4.36-4.4-.01-15.45,0-30.9,0-46.35Z"/>
      <path d="m36.77,50.51c0-15.12,0-30.25,0-45.37,0-4.31.82-5.13,5.11-5.13,3.98,0,7.97-.02,11.95,0,3.04.02,4.21,1.11,4.21,4.05.01,31.14.01,62.28,0,93.42,0,2.85-1.17,4.01-3.99,4.03-4.39.03-8.78.03-13.17,0-3.06-.02-4.11-1.13-4.11-4.42-.02-13.42,0-26.83,0-40.25,0-2.11,0-4.23,0-6.34Z"/>
      <path d="m62.11,43.86h125.67v13.79H62.11v-13.79Z"/>
      <path d="m11.71,50.64c0-10.65,0-21.3,0-31.95,0-3.48,1.03-4.52,4.46-4.53,4.15-.01,8.29-.02,12.44,0,3.23.01,4.36,1.02,4.36,4.16.02,21.62.02,43.25,0,64.87,0,3.13-1.14,4.16-4.36,4.17-4.23.02-8.45.02-12.68,0-3.11-.02-4.22-1.13-4.22-4.28-.01-10.81,0-21.62,0-32.44Z"/>
      <path d="m238.24,50.91c0,10.65,0,21.3,0,31.95,0,3.53-.97,4.49-4.46,4.5-4.23.01-8.46.02-12.68,0-2.91-.02-4.02-1.07-4.03-3.94-.02-21.79-.02-43.58,0-65.37,0-2.76,1.11-3.86,3.83-3.88,4.47-.04,8.94-.04,13.42,0,2.82.02,3.91,1.14,3.91,4.06.02,10.89,0,21.79,0,32.68Z"/>
    </g>
  </g>
</svg>