<?xml version="1.0" encoding="UTF-8"?>
<svg id="Layer_2" data-name="Layer 2" xmlns="http://www.w3.org/2000/svg" viewBox="0 0 250.41 250">
  <defs>
    <style>
      .cls-1 {
        fill: #67cf3d;
      }
    </style>
  </defs>
  <g id="Layer_1-2" data-name="Layer 1">
    <g>
      <path class="cls-1" d="m200.19,68.4c11.38-10.85,23.25-14.77,36.74-6.64,14.93,9,18.45,27.85,5.52,39.94-11.6,10.84-25.89,18.85-39.27,27.69-1.7,1.12-5.63.56-7.6-.68-11.6-7.32-23.58-14.27-34.16-22.89-13.32-10.84-14.82-25.71-5.55-37.62,9.53-12.24,25.13-13.9,39.17-4.11,1.52,1.06,2.86,2.39,5.14,4.31Z"/>
      <g>
        <path class="cls-1" d="m0,61.78h95.72v53.34H8.3C3.72,115.12,0,111.4,0,106.82v-45.04H0Z"/>
        <path class="cls-1" d="m95.72,168.09v29.99c0,12.89-10.44,23.35-23.35,23.35H0v-53.35h95.72Z"/>
        <path class="cls-1" d="m123.91,0h0C142.46,0,157.51,15.05,157.51,33.6h0c0,15.56-12.63,28.19-28.19,28.19h-33.6V28.19C95.73,12.63,108.36,0,123.91,0Z"/>
        <path class="cls-1" d="m176.67,250v-.96c0-22.37-9.06-42.6-23.72-57.23-14.63-14.66-34.89-23.72-57.23-23.72v-52.98h1.38c74.51,0,134.89,60.38,134.89,134.89h-55.32Z"/>
      </g>
    </g>
  </g>
</svg>