<?xml version="1.0" encoding="UTF-8"?>
<svg id="Layer_2" data-name="Layer 2" xmlns="http://www.w3.org/2000/svg" viewBox="0 0 250.01 250">
  <g id="Layer_1-2" data-name="Layer 1">
    <g>
      <path d="m215.33,250H34.67c-.36-.15-.71-.38-1.08-.44-13.73-2.21-23.75-9.57-29.73-22.06C2.03,223.71,1.25,219.41,0,215.34c0-69.16,0-138.31,0-207.47C1.99,2.04,6.14-.01,12.19,0c55.81.11,111.63.06,167.44.06,8.12,0,11.77,3.64,11.77,11.73,0,33.51,0,67.03,0,100.54v2.94c1.23,0,2.12,0,3,0,15.05,0,30.1-.02,45.15.01,6.34.02,10.4,4.05,10.42,10.37.04,11.96.05,23.91-.03,35.87-.01,1.58-.34,3.27-.97,4.71-1.77,4.11-6.38,6.37-10.65,5.45-4.63-.99-7.79-4.71-7.84-9.58-.09-8.21-.03-16.43-.03-24.65,0-.85,0-1.71,0-2.55h-38.91v17.94c2.99,0,5.82-.02,8.65,0,6.36.04,10.76,4.1,10.71,9.85-.05,5.65-4.41,9.63-10.64,9.67-2.9.02-5.8,0-8.7,0v19.04c2.93,0,5.69-.01,8.45,0,.97,0,1.97,0,2.92.19,4.9.95,8.28,5.32,7.95,10.2-.33,4.9-4.21,8.83-9.21,9.06-3.38.16-6.78.03-10.17.03.33,12.29,10.51,20.91,22.28,19.26,8.53-1.2,16.28-8.4,16.71-19.3.23-5.84,4.65-9.88,10.11-9.66,5.48.22,9.58,4.63,9.33,10.44-.68,15.53-7.93,27.1-21.75,34.18-3.96,2.03-8.56,2.82-12.86,4.17ZM19.53,19.63c0,.91,0,1.62,0,2.33,0,62.63,0,125.26.03,187.89,0,2.01.19,4.1.72,6.03,2.57,9.3,9.98,14.59,20.25,14.6,44.58,0,89.16,0,133.75,0,.79,0,1.58,0,2.59,0-.2-.63-.26-1.02-.44-1.35-3.55-6.63-4.59-13.77-4.58-21.2.05-61.73.03-123.47.03-185.2v-3.08H19.53Z"/>
      <path d="m95.68,97.21c-15.05,0-30.11,0-45.16,0-7.74,0-11.45-3.75-11.45-11.56,0-11.96,0-23.92,0-35.87,0-7.28,3.86-11.14,11.14-11.14,30.19,0,60.37,0,90.56,0,7.25,0,11.08,3.88,11.09,11.19,0,12.12.01,24.24,0,36.36,0,7.12-3.9,11.01-11.01,11.02-15.05.01-30.11,0-45.16,0Zm36.54-38.88H58.79v19.22h73.42v-19.22Z"/>
      <path d="m95.57,172.38c-15.3,0-30.59-.01-45.89,0-4.49,0-7.91-1.75-9.78-5.93-2.68-6,1.37-12.81,7.96-13.53.73-.08,1.46-.07,2.19-.07,30.43,0,60.86,0,91.29,0,5.26,0,8.93,2.31,10.4,6.47,2.29,6.5-2.38,12.97-9.56,13.03-9.84.08-19.69.02-29.53.02-5.7,0-11.39,0-17.09,0Z"/>
      <path d="m96.07,115.27c15.21,0,30.43.01,45.64,0,4.49,0,7.91,1.75,9.78,5.93,2.68,6-1.36,12.81-7.95,13.53-.73.08-1.46.07-2.19.07-30.27,0-60.53,0-90.8,0-5.26,0-8.93-2.3-10.4-6.47-2.3-6.5,2.38-12.97,9.55-13.03,9.76-.08,19.53-.02,29.29-.02,5.7,0,11.39,0,17.09,0Z"/>
      <path d="m76.04,211.43c-9.03,0-18.06.05-27.09-.02-4.66-.04-8.22-2.79-9.45-7.04-1.17-4.07.27-8.54,3.87-10.66,1.67-.99,3.79-1.7,5.71-1.72,18.06-.13,36.12-.11,54.18-.05,5.78.02,10.03,4.32,9.99,9.8-.04,5.48-4.3,9.64-10.13,9.68-9.03.06-18.06.02-27.09.01Z"/>
    </g>
  </g>
</svg>