<?xml version="1.0" encoding="UTF-8"?>
<svg id="Layer_2" data-name="Layer 2" xmlns="http://www.w3.org/2000/svg" viewBox="0 0 229.73 129.91">
  <defs>
    <style>
      .cls-1 {
        fill: #eee;
      }
    </style>
  </defs>
  <g id="Layer_1-2" data-name="Layer 1">
    <path class="cls-1" d="m114.89,93.56c.94-.9,1.78-1.65,2.57-2.44,28.47-28.46,56.96-56.9,85.38-85.41,4.44-4.45,9.4-6.8,15.72-5.14,10.58,2.78,14.68,15.42,7.76,23.9-.85,1.04-1.83,1.99-2.78,2.95-32.07,32.07-64.14,64.13-96.21,96.2-8.39,8.38-16.47,8.38-24.85,0C70.1,91.26,37.72,58.91,5.37,26.54-1.12,20.05-1.77,11.55,3.65,5.29c5.84-6.75,15.5-7.12,22.13-.65,7.59,7.41,15.03,14.98,22.53,22.48,21.33,21.33,42.67,42.66,64,63.98.79.79,1.62,1.55,2.58,2.46Z"/>
  </g>
</svg>