<?xml version="1.0" encoding="UTF-8"?>
<svg id="Layer_2" data-name="Layer 2" xmlns="http://www.w3.org/2000/svg" viewBox="0 0 224.86 224.92">
  <defs>
    <style>
      .cls-1 {
        fill: #eee;
      }
    </style>
  </defs>
  <g id="Layer_1-2" data-name="Layer 1">
    <g>
      <path class="cls-1" d="m189.36,180.71c2.39,0,4.67,0,6.95,0,4.27-.03,6.44-2.22,6.45-6.49.02-6.75.02-13.51,0-20.26-.01-4.54-2.15-6.67-6.72-6.69-2.26-.01-4.51,0-6.83,0h-1.17c0-.92,0-1.83.01-2.74.01-2.8.02-5.48,0-8.16h10.93v-11.05h-11.16v6.73c-1.03-6.87-6.09-12.31-13.2-13.86-2.8-.61-5.58-.43-8.74.6-.29-3.06-1.29-5.84-2.81-8.18h6.46v-11.06h-11.1v6.33c-2.62-1.76-5.78-2.77-9.23-2.77-.07,0-.15,0-.22,0-3.35.04-6.4,1.05-8.95,2.77v-6.34h-11.06v11.1h6.41c-1.8,2.8-2.84,6.22-2.86,9.98,0,1.45,0,2.9,0,4.37v.22l-3.51.25v11.18h3.36v10.47h-62.11c0-2.33,0-4.64.01-6.95,0-1.22,0-2.45,0-3.69h10.92v-11.14h-10.93c0-1.88-.02-3.76-.03-5.62-.07-8.61-6.57-15.72-15.11-16.54-8.49-.82-16.2,4.94-17.93,13.39-.16.79-.25,1.58-.32,2.34-8.16-1.96-14.15-.33-17.82,4.87l-1.04,1.46,7.92,7,1.32-1.15c2.33-2.02,4.37-2.41,6.63-1.25,2.11,1.08,3.02,2.88,2.96,5.83-.05,2.59-.04,5.21-.03,7.74,0,1.11.01,2.23.01,3.34v12.27c0,11.25,0,22.5,0,33.74,0,1.97-.59,4.56-3.36,5.68-1.68.68-3.4.52-4.83-.44-1.6-1.08-2.52-2.94-2.52-5.12-.02-13.2-.01-26.4-.01-39.6v-20.55s-11.48,0-11.48,0v14.57h-1.22c-2.37,0-4.65-.01-6.93,0-4.26.03-6.42,2.22-6.44,6.5-.02,6.75-.02,13.5,0,20.26,0,4.54,2.15,6.66,6.73,6.68,2.26,0,4.53,0,6.85,0h1.15c0,.92,0,1.84-.01,2.75-.02,3.52-.03,6.84.03,10.23.15,7.91,5.53,14.38,13.4,16.1,3.28.72,6.24.21,8.72-.59.17,1.31.36,2.65.76,3.97,2.08,6.91,8.8,11.75,15.86,11.74.72,0,1.45-.05,2.18-.16,8.32-1.2,14.44-8.03,14.54-16.25.08-6.12.06-12.33.05-18.34,0-2.64-.01-5.28-.01-7.92v-1.62h58.78v-11.23h-58.62v-10.67h62.09v14.88c-.01,11.3-.02,22.99.02,34.48.03,8.74,6.55,15.94,15.17,16.73,8.67.81,16.41-5.19,18-13.93.1-.57.17-1.13.21-1.69,5.06,1.73,10.48,1.01,14.87-1.99,4.37-2.99,6.99-7.74,7.21-13.05.11-2.74.09-5.5.07-8.18,0-1.21-.02-2.42-.02-3.63v-1.64s1.32,0,1.32,0Zm1.88-21.91v10.44h-3.08v-10.44h3.08Zm-25.29-3.28c0-6.69,0-13.38,0-20.07,0-3.79,2.09-6.26,5.31-6.29h.05c1.43,0,2.69.49,3.62,1.42,1.12,1.11,1.73,2.79,1.73,4.74.01,19.25.01,38.49,0,57.74,0,2.8-1.4,4.75-3.94,5.5-2.23.65-4.63-.22-5.71-2.08-.61-1.05-1-2.5-1.01-3.78-.09-7.15-.08-14.44-.06-21.48,0-2.42,0-4.83,0-7.25v-8.45Zm-22.09-4.26c0-10.37,0-20.74.01-31.11,0-3.07,1.9-5.35,4.72-5.68,2.64-.31,5.12,1.42,5.79,4.03.17.68.19,1.51.19,2.23.01,28.83.01,57.67,0,86.5,0,3.79-2.09,6.26-5.32,6.28-1.42.04-2.71-.47-3.63-1.38-1.14-1.13-1.77-2.91-1.77-5.02,0-10.57,0-21.14,0-31.72v-11.53s0-12.6,0-12.6Zm-84.97,24.58c0,10.69,0,21.39-.01,32.08,0,2.65-1.41,4.6-3.86,5.35-2.24.69-4.61-.14-5.76-2.01-.63-1.03-1.03-2.27-1.03-3.24-.07-25.53-.08-52.7-.04-88.11,0-1.54.56-2.94,1.59-3.96.98-.98,2.32-1.51,3.76-1.51h.05c3.01.02,5.29,2.43,5.3,5.6.03,10.57.02,21.14.02,31.72v12.22s0,11.86,0,11.86Zm-44.35-17.1v10.52h-3.04v-10.52h3.04Z"/>
      <path class="cls-1" d="m224.83,31.66c0-9.57-7.33-16.85-17.04-16.93-1.56-.01-3.11,0-4.73,0h-.29c0-.67,0-1.31-.02-1.94-.21-7.19-5.93-12.78-13.04-12.78-.04,0-.08,0-.11,0-7.03.06-12.7,5.67-12.9,12.77-.02.61-.02,1.22-.02,1.83h-10.72c0-.52,0-1.04-.01-1.55C165.8,5.72,160.08,0,152.91,0h-.08c-7.1.04-12.79,5.75-12.94,12.98-.01.54-.01,1.08-.01,1.63h-10.71c0-.6,0-1.19-.02-1.77C128.94,5.63,123.22,0,116.1,0h-.05c-7.12.03-12.81,5.72-12.97,12.95-.01.58-.01,1.17-.01,1.77h-10.72c0-.65,0-1.25-.01-1.85C92.14,5.65,86.42,0,79.3,0h-.02c-7.13.01-12.84,5.69-13.01,12.92-.01.59-.02,1.19-.01,1.79-.61,0-1.23,0-1.83-.01-4.01-.05-8.15-.09-12.05,2.37-5.19,3.27-7.94,8.05-8.17,14.18l-.08,2.08h10.92l.33-1.6c1.06-5.17,3.67-5.43,4.53-5.52,1.8-.18,3.63-.14,5.57-.09.28,0,.56.01.83.02.98,7.39,3.52,14.44,12.65,14.65,3.26.07,6.21-.96,8.74-3.08,3.96-3.31,4.76-7.59,4.7-11.64h10.67c0,.59,0,1.16.01,1.72.15,7.24,5.83,12.95,12.92,13,.03,0,.07,0,.1,0,7.17,0,12.89-5.71,13.04-13.04,0-.52.01-1.04.01-1.55h10.72c0,.53,0,1.05.01,1.57.15,7.24,5.81,12.96,12.9,13.02.04,0,.08,0,.12,0,7.17,0,12.89-5.7,13.05-13.02.01-.55.01-1.1.01-1.65h10.72c0,.64,0,1.26.02,1.87.2,7.1,5.85,12.72,12.87,12.8,7.15.07,12.96-5.52,13.18-12.75.02-.65.02-1.31.02-1.97h.12c1.46,0,2.81,0,4.17,0,4.38.01,6.42,2.02,6.43,6.32,0,5.3,0,10.61,0,15.91v6.78H55.49v-18.11h-11.19v62.57h11.35v-32.86h157.84v95.61c0,4.72-1.12,6.15-5.72,7.28l-1.52.38v11.58l7.03-1.8c-.19,1.09-.6,1.97-1.23,2.65-1.02,1.1-2.65,1.67-4.85,1.68-.89,0-1.78,0-2.68,0h-13.02s0,11.36,0,11.36h6.51c1.48,0,2.96.01,4.43.01,1.8,0,3.59,0,5.38-.02,9.68-.08,16.99-7.38,17-16.98.03-49.99.03-99.37,0-146.79Zm-33.42-9.08c.01,1.61.02,3.27-.02,4.88-.01.46-.17,1.96-1.66,1.96h0c-1.02,0-1.64-.71-1.65-1.91-.06-4.66-.06-9.45,0-14.22,0-.58.18-1.92,1.65-1.93h.01c1.45,0,1.64,1.36,1.66,1.94.05,1.62.03,3.28.02,4.89,0,.73,0,1.46,0,2.19s0,1.46,0,2.19Zm-40.18-4.33c-.01-1.62-.02-3.29.02-4.92.02-.59.21-1.95,1.66-1.95h0c1.02,0,1.64.72,1.66,1.92.06,4.72.06,9.5,0,14.21-.01,1.2-.63,1.92-1.66,1.92-1.45,0-1.65-1.36-1.66-1.95-.04-1.62-.03-3.28-.02-4.88,0-.73,0-1.46,0-2.19h0c0-.72,0-1.44,0-2.15Zm-33.44,4.19c0,1.55.01,3.11-.01,4.66-.01.89-.24,1.58-.63,1.97-.26.25-.61.38-1.07.37-1.35-.02-1.64-1.2-1.65-2.19-.04-4.98-.04-9.49,0-13.77,0-.74.21-1.35.57-1.7.27-.26.63-.39,1.08-.39.01,0,.02,0,.03,0,1.07.02,1.63.76,1.65,2.21.03,1.58.02,3.15.01,4.73v2.14s0,1.98,0,1.98Zm-40.18-4.41c0-1.53-.02-3.11.02-4.65.02-.74.26-1.98,1.64-2,.47-.01.86.14,1.15.41.34.33.52.83.53,1.46.06,4.46.06,9.11,0,14.21,0,.59-.18,1.95-1.64,1.97-.01,0-.02,0-.03,0-1.4,0-1.64-1.32-1.66-2.12-.03-1.63-.02-3.27-.02-4.9,0-.73,0-1.46,0-2.19,0-.73,0-1.47,0-2.2Z"/>
      <rect class="cls-1" x="73.81" y="184.12" width="55.15" height="11.17"/>
      <rect class="cls-1" x="128.98" y="73.76" width="11.1" height="11.06"/>
      <rect class="cls-1" x="158.45" y="73.78" width="11.08" height="11.09"/>
      <rect class="cls-1" x="187.87" y="73.75" width="11.12" height="11.08"/>
      <rect class="cls-1" x="70.1" y="99.54" width="11.08" height="11.12"/>
      <rect class="cls-1" x="99.53" y="99.52" width="11.12" height="11.08"/>
      <rect class="cls-1" x="99.51" y="73.81" width="11.07" height="11.08"/>
      <rect class="cls-1" x="187.83" y="99.56" width="11.11" height="11.07"/>
      <rect class="cls-1" x="70.09" y="73.76" width="11.1" height="11.14"/>
      <rect class="cls-1" x="99.52" y="125.28" width="11.06" height="11.16"/>
    </g>
  </g>
</svg>