<?xml version="1.0" encoding="UTF-8"?>
<svg id="Layer_2" data-name="Layer 2" xmlns="http://www.w3.org/2000/svg" viewBox="0 0 250 250">
  <defs>
    <style>
      .cls-1 {
        fill: #edecff;
      }
    </style>
  </defs>
  <g id="Layer_1-2" data-name="Layer 1">
    <path class="cls-1" d="m250,117.19v15.14c-.53,4.26-.85,8.56-1.63,12.77-8.09,43.45-32.11,74.74-71.97,93.79-5.3,2.53-10.96,4.31-16.69,6.53v-92.76h26.75c1.36-10.52,2.68-20.78,4.05-31.38h-30.79c-.08-.6-.15-.92-.15-1.24.01-7-.1-14,.08-20.99.21-8.07,4.35-12.26,12.46-12.61,5.52-.24,11.06-.12,16.6-.16.85,0,1.71,0,2.52,0v-28.52c-9.81-.15-19.49-.75-29.11-.25-4.97.26-10.16,1.8-14.69,3.95-13.14,6.22-18.91,17.65-19.91,31.57-.6,8.42-.26,16.91-.33,25.38,0,.94,0,1.89,0,3.1h-26.7v31.18h26.7v2.89c0,30.6,0,61.19-.01,91.79,0,.88-.15,1.76-.23,2.65h-9.77c-.54-.13-1.08-.35-1.63-.39-15.07-1.11-29.54-4.65-43.12-11.27C33.82,219.51,10.25,188.98,1.95,146.78c-.91-4.61-1.31-9.31-1.95-13.97,0-5.21,0-10.42,0-15.63.2-1.6.42-3.2.59-4.8,2.94-27.02,13.29-50.8,31.53-70.96C51.42,20.1,75.3,6.81,103.71,1.89,108.18,1.11,112.69.62,117.19,0c5.21,0,10.42,0,15.62,0,.63.14,1.25.35,1.88.4,19.37,1.46,37.51,7.01,54.07,17.14,32.43,19.84,52.3,48.49,59.32,85.91.85,4.54,1.29,9.15,1.92,13.73Z"/>
  </g>
</svg>