<?xml version="1.0" encoding="UTF-8"?>
<svg id="Layer_2" data-name="Layer 2" xmlns="http://www.w3.org/2000/svg" viewBox="0 0 249.67 249.63">
  <defs>
    <style>
      .cls-1 {
        fill: #fff;
      }
    </style>
  </defs>
  <g id="Layer_1-2" data-name="Layer 1">
    <g>
      <path d="m249.67,63.92v121.86c-.41,2.55-.68,5.13-1.24,7.65-6.36,28.28-23.47,46.41-51.41,54.16-3.64,1.01-7.46,1.38-11.19,2.04H63.99c-.79-.15-1.57-.34-2.36-.43-6.82-.75-13.5-2.26-19.68-5.19C15.14,231.34.69,210.12.27,180.43c-.52-37.04-.14-74.09-.11-111.13.01-12,2.65-23.44,8.75-33.78C22.67,12.19,43.27.26,70.34.11c36.39-.2,72.78-.09,109.16,0,4.69.01,9.48.26,14.03,1.27,28.26,6.23,46.32,23.43,54.08,51.32,1.01,3.65,1.38,7.47,2.05,11.22Zm-124.65,163.59c18.03,0,36.06,0,54.08,0,7.22,0,14.28-.98,20.82-4.18,18.25-8.93,27.5-23.71,27.58-43.95.15-36.39.15-72.78-.07-109.16-.03-5.43-.82-11.11-2.56-16.23-6.73-19.86-23.94-31.74-45.39-31.78-36.38-.06-72.76-.12-109.14.1-5.43.03-11.11.81-16.23,2.54-19.87,6.71-31.78,23.92-31.83,45.36-.07,36.47-.06,72.94,0,109.41.02,16.36,6.52,29.58,19.8,39.26,8.5,6.19,18.18,8.68,28.61,8.66,18.11-.04,36.22-.01,54.33-.01Z"/>
      <path class="cls-1" d="m185.83,249.63c3.74-.67,7.55-1.03,11.19-2.04,27.94-7.76,45.05-25.89,51.41-54.16.57-2.52.83-5.1,1.24-7.65v63.86c-21.28,0-42.56,0-63.84,0Z"/>
      <path d="m189.21,124.94c-.12,35.4-29.24,64.42-64.46,64.22-35.45-.19-64.42-29.33-64.15-64.53.27-35.41,29.11-64.14,64.33-64.1,35.35.04,64.39,29.14,64.27,64.41Zm-22.18-.04c.07-23.18-18.8-42.11-42.07-42.18-23.18-.07-42.1,18.8-42.17,42.08-.08,23.18,18.79,42.11,42.07,42.18,23.18.08,42.1-18.8,42.18-42.08Z"/>
      <path d="m191.86,41.84c8.94-.03,16.37,7.38,16.28,16.24-.09,8.83-7.37,16.08-16.19,16.11-8.92.02-16.37-7.41-16.29-16.26.08-8.85,7.33-16.06,16.19-16.09Z"/>
    </g>
  </g>
</svg>