<?xml version="1.0" encoding="UTF-8"?>
<svg id="Layer_2" data-name="Layer 2" xmlns="http://www.w3.org/2000/svg" viewBox="0 0 208.34 208.4">
  <g id="Layer_1-2" data-name="Layer 1">
    <path d="m93.65,42.21v-20.38c-22.98,1.54-57.59,19.56-69.36,58.44-11.34,37.44,5.32,77.88,40.13,97.12,34.21,18.91,76.93,10.91,103.04-19.1,25.95-29.83,28.76-79.76-4.07-112.76,4.76-4.76,9.53-9.52,14.3-14.29,29.92,27.54,41.89,79.1,17.83,122.77-25.23,45.8-78.9,65.72-127.31,47.94C19.91,184.21-8.56,133.97,2.31,82.52,12.44,34.59,55.91-3.68,114.53.28c0,.98,0,1.99,0,3,0,26.68.02,53.37-.03,80.05,0,1.78.43,2.9,1.96,4.01,7.94,5.75,10.69,16.36,6.74,25.28-3.99,8.97-13.7,13.99-23.26,12.02-9.49-1.96-16.55-10.41-16.59-20.26-.03-7.11,2.86-12.96,8.67-17.16,1.37-.99,1.83-1.98,1.81-3.59-.08-6.56-.03-13.13-.03-19.72-14.7,2.1-28.87,18.16-31.03,34.9-2.33,18.08,8.34,36.28,25.42,43.35,17.49,7.24,37.45,1.86,49.05-13.2,11.23-14.58,12.65-37.05-2.98-54.69,4.77-4.77,9.52-9.53,14.3-14.3,14.35,12.73,23.73,39.6,14.29,65.16-10.1,27.34-37.08,43.83-66.57,40.56-27.22-3.01-50.58-26.12-54.02-53.52-2.09-16.63,1.66-31.85,11.59-45.38,9.92-13.54,23.37-21.58,39.83-24.58Z"/>
  </g>
</svg>