<?xml version="1.0" encoding="UTF-8"?>
<svg id="Layer_2" data-name="Layer 2" xmlns="http://www.w3.org/2000/svg" viewBox="0 0 250 205.63">
  <defs>
    <style>
      .cls-1 {
        fill: #edecff;
      }
    </style>
  </defs>
  <g id="Layer_1-2" data-name="Layer 1">
    <path class="cls-1" d="m0,182.57c27.61,1.82,52.48-4.76,75.05-21.84-23.72-2.2-39.33-14.14-48.08-36.11h22.21c.06-.29.11-.58.17-.87-24.95-7.82-38.37-24.63-40.4-51.41,7.57,3.62,14.71,6.12,23.2,6.22-10.83-8.55-18.17-18.77-21.31-31.64-3.17-12.97-.65-25.13,5.83-37.12,27.95,32.61,62.8,51.01,105.23,53.7,0-5.72-.48-11.04.08-16.25,2.26-21.05,13.33-36.05,33.02-43.54,19.7-7.49,37.9-3.5,53.65,10.57,1.93,1.72,3.53,2.42,5.91,1.5,8.66-3.35,17.35-6.64,26.02-9.98.82-.31,1.58-.77,3.15-1.54-4.09,12.21-11.22,21.03-21.28,27.66.15.35.3.69.45,1.04,8.95-2.47,17.89-4.94,27.1-7.49-.59.91-1.21,1.95-1.92,2.94-5.89,8.23-12.91,15.38-20.97,21.48-1.74,1.32-2.39,2.58-2.32,4.79,1.87,58.01-32.74,114.99-85.16,137.66-46.39,20.07-92.17,17.27-136.35-7.7-1.13-.64-2.19-1.39-3.28-2.09Z"/>
  </g>
</svg>